<?xml version="1.0" encoding="UTF-8"?>
<svg id="Layer_1" xmlns="http://www.w3.org/2000/svg" width="520" height="520" viewBox="0 0 520 520">
  <defs>
    <style>.cls-1{fill:#fff}.cls-2{fill:#c7953b}.cls-3{fill:#2b4b72}</style>
  </defs>
  <rect class="cls-1" width="520" height="520"/>
  <path class="cls-3" d="M81.34,334.56s.03-172.51,2.26-176.09c8.12-1.35,16.3-2.58,25.06-2.24l.11-20.36c62.48-6.45,122.16,10.43,151.33,69.94l18.25-27.32c32.41-37.77,85.44-48.14,133.61-42.65l.51,19.81c9.22.39,17.98.45,26.58,3.47l.12,175.96c-55.94-7.96-111.31-3.57-161.17,22.36,35.76-39.05,93.97-46.1,145.51-39.27l.02-151.6c-3.84-2.72-6.38-5.37-11.2-6.51l.03,146.13c-51.95-3.12-105.42,5.41-140.63,44.74,21.59-45.44,74.66-61.14,123.47-59.12l-.02-144.04c-36.6-3.09-72.85,3.71-102.23,23.86-13.43,9.98-24.34,20.98-29.11,37.16l-1.08,137.71c-4.09-2.4-4.64-6.39-4.68-11.12l-1.11-124.88c-.08-9.24-6.83-17.49-12.5-23.92-28.14-31.89-75.99-42.85-118.69-38.74v144.1c47.53-2.59,102.14,13.8,123.02,58.25-36.85-39.13-89.32-47.3-140.19-43.95l-.04-147c-4.78,1.74-7.38,4.3-11.14,7.39l-.02,151.52c50.6-6.69,108.88-.16,144.65,38.58-23.9-11.23-47.02-19.36-72.73-22.33-28.21-4.47-87,.02-87.97.17Z"/>
  <path class="cls-2" d="M395.37,343.06c4.42,2.54,9.64,2.09,14.98,2.69,19.55,4.05,38.98,8.25,54.77,19.73-61.02-12.11-125.84-13.33-183.8,15.16-3.21,9.61-11.34,17.02-21.32,15.35-9.28.28-17.95-5.58-20.5-15.31-57.35-28.58-123.12-27.59-186.37-14.75,19.03-12.6,40.94-18.33,63.03-21.07,2.13-.26,3.84-.52,4.87-1.81,48.43-2.49,96.02,8.47,139.45,33.07,41.93-23.67,88.25-35.22,134.9-33.08Z"/>
  <path class="cls-3" d="M121.02,343.06c-1.03,1.29-2.74,1.54-4.87,1.81-22.09,2.74-44,8.48-63.03,21.07l-.17-174.56,17.21-9.69.13,167.06c17.2-2.7,33.94-4.82,50.73-5.68Z"/>
  <path class="cls-3" d="M465.12,365.49c-15.79-11.48-35.21-15.68-54.77-19.73-5.34-.6-10.56-.16-14.98-2.69,18.36,1.28,36.63,2.45,55.23,5.8v-167.17s17.4,9.64,17.4,9.64l-.06,170.97c0,1.43-.32,2.45-1.04,2.7-.39.13-1.28-.17-1.77.48Z"/>
  <path class="cls-2" d="M254.89,103.72c9.43-3.18,18.64,1.72,21.56,10.26s-1.2,18.33-10.42,21.25c-8.14,2.58-17.58-.91-20.79-9.46s-.02-18.79,9.65-22.05Z"/>
</svg>
