<?xml version="1.0" encoding="UTF-8"?>
<svg xmlns="http://www.w3.org/2000/svg" version="1.1" viewBox="0 0 3053.55 655.62">
  <!-- Generator: Adobe Illustrator 30.4.0, SVG Export Plug-In . SVG Version: 2.1.4 Build 226)  -->
  <defs>
    <style>
      .st0, .st1 {
        fill: #fff;
      }

      .st0, .st2 {
        font-family: Athelas-Bold, Athelas;
        font-size: 275px;
        font-weight: 700;
      }

      .st3 {
        fill: #aa7d48;
      }
    </style>
  </defs>
  <rect class="st1" width="3053.55" height="655.62"/>
  <g id="Layer_1">
    <g id="logo">
      <path class="st1" d="M424.73,323.31c0-28.11-32.07-55.86-54.45-72.54-33.98-24.35-72.13-41.41-115.75-46.5l-.26,170.04c62.02,2.13,128.9,33.68,158.8,90.46-21.12-18.2-40.55-33.42-65.01-44.64-35.97-16.5-74.33-24.05-114.59-23.88l.14-209.09c13.06-.47,23.92.81,35.97,3.58,64.85,14.92,129.78,58.69,159.91,120.35,5.85-14.53,14.3-26.97,24.94-39.32,35.21-40.87,82.78-69.35,135.5-81.29,11.62-2.63,22.09-4.05,34.48-3.34l.13,209.07c-46.49-.19-91.03,10.55-131.29,32.75-18.56,10.24-32.99,22.53-49.31,37.34,7.85-18.29,21.08-31.17,35.23-43.8,33.88-30.23,77.52-45.81,123.98-48.16l-.04-169.11c-17.21.2-31.85,5.08-47.5,10.02-35.84,12.99-68.16,32.73-95.53,59.24l-14.75,17.11c-9.2,10.67-12.82,23.24-12.79,37.28l.14,90.7c.02,13.93.87,26.92-3.27,41.03-5.42-13.5-4.7-26.04-4.7-39.39v-97.93Z"/>
      <path class="st3" d="M635.06,450.08c19.74,2.46,43.77,12.29,58.12,24.8,2.17,1.89,3.72,4.21,6.24,4.34.52.58.19,1.99-1.32,1.59-84.92-22.93-164.23-16.78-242.42,22.99-1.91,11.46-9.88,18.46-20.76,20.43-14.78,2.68-29.14-5.31-32.18-20.56-77.62-40.71-159.05-44.79-242.6-23.18,15.24-17.06,51.2-26.29,75.91-28.95,2.99-.32,4-1.68,7.64-2.39,65.77-3.21,120.83,14.03,177.03,48.8,6.71,4.15,12.41,3.37,19-.86,53.51-34.35,115.27-51.65,179.18-47.88,2.13.13,14.32.65,16.16.88Z"/>
      <path class="st1" d="M458.83,471.62c21.67-24.57,52-38.55,82.68-48.72,32.16-10.66,64.97-12.63,98.65-11.64l-.06-197.91,21.12-3.32.02,224c-28.83-2.47-55.36-3.26-82.79,0-42.18,3.8-79.49,17.39-119.62,37.58Z"/>
      <path class="st1" d="M307.88,420.27c34.66,9.91,66.73,25.06,91.64,51.75-41.46-22.6-83.13-36.55-129.1-39.24-24.85-1.74-48.86-1-73.9,1.02l.03-223.44c7.37.24,13.82,1.37,20.97,3.36v197.39c30.95-.3,60.07.88,90.36,9.16Z"/>
      <path class="st1" d="M243.69,449.15c-6.73,2.35-4.65,2.07-7.64,2.39-24.71,2.66-60.66,11.89-75.91,28.95-1.32.17-2.12-1.18-2.08-3.14l-.18-227.16,22.96-6.45.22,207.9c21.59-1.15,43.87-4.48,62.63-2.5Z"/>
      <path class="st1" d="M699.42,479.22c-2.52-.13-4.07-2.45-6.24-4.34-14.35-12.51-48.89-22.38-68.64-24.84.6-1.54,24.23-.15,34.13.36,6.14.32,11.83,2.42,18.28,1l.16-206.54c9.08.73,14.91,2.78,22.4,6.07l-.1,228.3Z"/>
      <path class="st3" d="M421.62,161.22c12.16-4.86,24.97.98,29.21,12.45,4.08,11.02-.64,24.06-13.26,28.74-10.03,3.72-22.39-.42-27.55-11.7-4.68-10.22-.98-24.45,11.6-29.48Z"/>
    </g>
    <text class="st2" transform="translate(793.54 447.73)"><tspan class="st1" x="0" y="0">Press</tspan><tspan class="st3" x="623.14" y="0">mark</tspan></text>
    <text class="st0" transform="translate(2075.3986 454.3276)"><tspan x="0" y="0">Studio</tspan></text>
  </g>
</svg>